<?xml version="1.0" encoding="UTF-8"?>
<svg version="1.1" xmlns="http://www.w3.org/2000/svg" width="334" height="70">
<path d="M0 0 C1.41732422 -0.02126953 1.41732422 -0.02126953 2.86328125 -0.04296875 C5.83156882 0.19925665 7.99617165 0.94723393 10.6875 2.1875 C10.3575 4.1675 10.0275 6.1475 9.6875 8.1875 C5.85956387 9.56555701 2.63501261 8.77231668 -1.3125 8.1875 C-2.3025 8.6825 -2.3025 8.6825 -3.3125 9.1875 C-3.3125 10.1775 -3.3125 11.1675 -3.3125 12.1875 C-2.17361328 12.76757812 -2.17361328 12.76757812 -1.01171875 13.359375 C-0.01785156 13.88015625 0.97601563 14.4009375 2 14.9375 C2.98613281 15.44796875 3.97226562 15.9584375 4.98828125 16.484375 C8.74247003 18.85315403 10.32153918 20.86441086 11.5 25.125 C11.71147609 28.57910952 11.41585041 30.20216747 9.6875 33.1875 C6.04559888 37.28463876 2.51128421 37.88463975 -2.73046875 38.23828125 C-6.52279153 38.16369699 -9.70116039 37.32440321 -13.3125 36.1875 C-13.3125 33.5475 -13.3125 30.9075 -13.3125 28.1875 C-12.3225 28.3525 -11.3325 28.5175 -10.3125 28.6875 C-6.28517058 29.27224517 -2.37775377 29.25882024 1.6875 29.1875 C1.55546243 27.27391848 1.55546243 27.27391848 0.6875 25.1875 C-1.51157632 23.53872512 -1.51157632 23.53872512 -4.1875 22.1875 C-7.77330932 20.26391716 -10.24583545 18.75416302 -12.3125 15.1875 C-12.97314501 12.10999534 -12.91779744 9.27451693 -12.3125 6.1875 C-8.49806328 1.36926414 -5.98351149 0.04048384 0 0 Z " fill="#F7F7F7" transform="translate(14.3125,1.8125)"/>
<path d="M0 0 C3.3 0 6.6 0 10 0 C11.65 4.62 13.3 9.24 15 14 C15.61875 12.4325 16.2375 10.865 16.875 9.25 C18.13288446 6.06335936 19.46333657 3.07332686 21 0 C23.97 0 26.94 0 30 0 C27.7804739 7.77195621 25.13098011 15.28630275 22.1875 22.8125 C21.77435547 23.91787109 21.36121094 25.02324219 20.93554688 26.16210938 C18.54045798 32.26977057 16.75676439 36.60479165 11 40 C8.4453125 40.48828125 8.4453125 40.48828125 6.125 40.3125 C5.34382812 40.26738281 4.56265625 40.22226562 3.7578125 40.17578125 C2.88769531 40.08876953 2.88769531 40.08876953 2 40 C2 37.69 2 35.38 2 33 C4.31 32.34 6.62 31.68 9 31 C10.31924146 26.57750222 9.60067193 24.06094323 7.91015625 19.82421875 C7.45576172 18.66728516 7.00136719 17.51035156 6.53320312 16.31835938 C6.04787109 15.12017578 5.56253906 13.92199219 5.0625 12.6875 C4.58103516 11.46998047 4.09957031 10.25246094 3.60351562 8.99804688 C2.41366736 5.99397452 1.21218023 2.99511512 0 0 Z " fill="#F7F7F7" transform="translate(223,11)"/>
<path d="M0 0 C3.37554141 1.85323842 3.92285106 2.30316703 5.1875 5.75 C5.41455078 8.22363281 5.41455078 8.22363281 5.3828125 10.953125 C5.37636719 11.9328125 5.36992187 12.9125 5.36328125 13.921875 C5.34652344 14.93765625 5.32976562 15.9534375 5.3125 17 C5.30347656 18.03125 5.29445312 19.0625 5.28515625 20.125 C5.26162011 22.66690287 5.22874023 25.2083328 5.1875 27.75 C2.8775 27.75 0.5675 27.75 -1.8125 27.75 C-2.1425 27.09 -2.4725 26.43 -2.8125 25.75 C-3.6375 26.265625 -4.4625 26.78125 -5.3125 27.3125 C-9.89602901 29.19502084 -12.01313165 28.85149437 -16.8125 27.75 C-19.50121512 26.10207783 -19.7451468 24.98314569 -20.625 21.9375 C-20.84872574 18.13416247 -20.67366909 16.10010437 -18.8125 12.75 C-14.08780474 9.80258497 -9.24478329 9.41048229 -3.8125 9.75 C-4.1425 8.76 -4.4725 7.77 -4.8125 6.75 C-10.2575 7.245 -10.2575 7.245 -15.8125 7.75 C-16.4725 5.77 -17.1325 3.79 -17.8125 1.75 C-11.66526688 -1.26088969 -6.65941401 -2.50934441 0 0 Z M-11.8125 17.75 C-11.4939823 19.85820797 -11.4939823 19.85820797 -10.8125 21.75 C-8.39604218 21.91687448 -8.39604218 21.91687448 -5.8125 21.75 C-5.1525 21.09 -4.4925 20.43 -3.8125 19.75 C-3.8125 18.43 -3.8125 17.11 -3.8125 15.75 C-8.30554582 15.32496554 -8.30554582 15.32496554 -11.8125 17.75 Z " fill="#F8F8F8" transform="translate(215.8125,11.25)"/>
<path d="M0 0 C2.70552388 2.19823815 4.44778333 3.89556667 6 7 C6.13559318 10.00474497 6.04299016 12.99068847 6 16 C0.39 16 -5.22 16 -11 16 C-10.01 17.65 -9.02 19.3 -8 21 C-3.53021769 21.50601309 0.60287551 20.85797551 5 20 C5 22.31 5 24.62 5 27 C-1.80039587 29.51318978 -8.15157874 29.55574477 -14.9375 26.8125 C-18.28685955 23.86912343 -19.75615451 21.05431476 -20.28515625 16.59765625 C-20.46709305 11.3373097 -20.0481908 7.46342225 -17 3 C-12.07649111 -1.60586315 -6.2953134 -1.67201728 0 0 Z M-9 6 C-9.66 7.32 -10.32 8.64 -11 10 C-8.03 10 -5.06 10 -2 10 C-2.66 8.68 -3.32 7.36 -4 6 C-5.65 6 -7.3 6 -9 6 Z " fill="#F7F7F7" transform="translate(274,11)"/>
<path d="M0 0 C2.70552388 2.19823815 4.44778333 3.89556667 6 7 C6.13559318 10.00474497 6.04299016 12.99068847 6 16 C0.39 16 -5.22 16 -11 16 C-10.01 17.65 -9.02 19.3 -8 21 C-3.53021769 21.50601309 0.60287551 20.85797551 5 20 C5 22.31 5 24.62 5 27 C-1.80039587 29.51318978 -8.15157874 29.55574477 -14.9375 26.8125 C-18.27993692 23.87520695 -19.72075587 21.06368225 -20.3203125 16.6328125 C-20.59681907 10.56810176 -19.80242479 6.77740551 -16 2 C-10.76141047 -1.28695813 -5.85203269 -1.83013007 0 0 Z M-9 6 C-9.66 7.32 -10.32 8.64 -11 10 C-8.03 10 -5.06 10 -2 10 C-2.66 8.68 -3.32 7.36 -4 6 C-5.65 6 -7.3 6 -9 6 Z " fill="#F8F8F8" transform="translate(158,11)"/>
<path d="M0 0 C2.97 0 5.94 0 9 0 C9.33 6.6 9.66 13.2 10 20 C13.74691447 21.39770584 13.74691447 21.39770584 16 20 C16.86419223 17.40742331 17.17580932 15.65962293 17.31640625 12.98828125 C17.35830078 12.23095703 17.40019531 11.47363281 17.44335938 10.69335938 C17.48267578 9.90767578 17.52199219 9.12199219 17.5625 8.3125 C17.60568359 7.51521484 17.64886719 6.71792969 17.69335938 5.89648438 C17.79927368 3.93118553 17.90012551 1.96561504 18 0 C20.64 0 23.28 0 26 0 C26 9.24 26 18.48 26 28 C22.66666667 28 19.33333333 28 16 28 C14.741875 28.226875 13.48375 28.45375 12.1875 28.6875 C7.99379488 29.22812497 5.53817276 28.44302405 2 26 C-0.00355278 22.88977945 -0.23785609 20.45562347 -0.1953125 16.796875 C-0.18886719 15.8171875 -0.18242188 14.8375 -0.17578125 13.828125 C-0.15902344 12.81234375 -0.14226562 11.7965625 -0.125 10.75 C-0.11597656 9.71875 -0.10695313 8.6875 -0.09765625 7.625 C-0.07412011 5.08309713 -0.04124023 2.5416672 0 0 Z " fill="#F7F7F7" transform="translate(85,11)"/>
<path d="M0 0 C4.50873551 4.72867382 3.5625 6.8034121 3.5625 13.6875 C-4.8525 14.1825 -4.8525 14.1825 -13.4375 14.6875 C-13.1075 15.6775 -12.7775 16.6675 -12.4375 17.6875 C-8.15750646 19.82749677 -2.94701645 18.78071611 1.5625 17.6875 C1.5625 19.9975 1.5625 22.3075 1.5625 24.6875 C-4.28317682 26.84785882 -9.33265808 27.12575937 -15.4375 25.6875 C-19.04490017 23.50802907 -20.88640109 21.56186059 -22.4375 17.6875 C-22.73828125 14.84765625 -22.73828125 14.84765625 -22.75 11.75 C-22.76675781 10.73035156 -22.78351562 9.71070313 -22.80078125 8.66015625 C-22.28298451 4.42313129 -20.64248587 1.77587434 -17.5 -1.0625 C-11.87406993 -4.47215459 -5.18291491 -4.05890927 0 0 Z M-11.4375 3.6875 C-12.0975 5.0075 -12.7575 6.3275 -13.4375 7.6875 C-10.4675 7.6875 -7.4975 7.6875 -4.4375 7.6875 C-5.0975 6.3675 -5.7575 5.0475 -6.4375 3.6875 C-8.0875 3.6875 -9.7375 3.6875 -11.4375 3.6875 Z " fill="#F7F7F7" transform="translate(51.4375,13.3125)"/>
<path d="M0 0 C1.07314453 0.01289062 2.14628906 0.02578125 3.25195312 0.0390625 C4.37150391 0.07257812 5.49105469 0.10609375 6.64453125 0.140625 C7.77568359 0.15867187 8.90683594 0.17671875 10.07226562 0.1953125 C12.86803501 0.24249848 15.66211097 0.30831905 18.45703125 0.390625 C19.35802969 8.60666024 16.58937697 14.66387367 13.06762695 21.92260742 C12.13882995 23.83989401 11.23868847 25.76878483 10.34179688 27.70117188 C5.90195299 37.09401051 5.90195299 37.09401051 2.45703125 39.390625 C-2.08350929 38.85008446 -2.08350929 38.85008446 -3.54296875 37.390625 C-3.26100015 30.81723207 -0.54360078 25.77517148 2.45703125 20.015625 C2.92109375 19.10167969 3.38515625 18.18773438 3.86328125 17.24609375 C7.27371058 10.57394567 7.27371058 10.57394567 8.45703125 9.390625 C3.17703125 9.060625 -2.10296875 8.730625 -7.54296875 8.390625 C-8.54296875 4.390625 -8.54296875 4.390625 -7.4519043 2.16503906 C-4.88675263 -0.21934798 -3.46430333 -0.07331859 0 0 Z " fill="#FF5810" transform="translate(315.54296875,-0.390625)"/>
<path d="M0 0 C2.64 0 5.28 0 8 0 C8 9.9 8 19.8 8 30 C12.95 30 17.9 30 23 30 C23 32.31 23 34.62 23 37 C15.41 37 7.82 37 0 37 C0 24.79 0 12.58 0 0 Z " fill="#F7F7F7" transform="translate(170,2)"/>
<path d="M0 0 C0.86882812 0.09023437 1.73765625 0.18046875 2.6328125 0.2734375 C4.875 0.625 4.875 0.625 6.875 1.625 C6.215 3.935 5.555 6.245 4.875 8.625 C2.88932292 8.29947917 0.90364583 7.97395833 -1.08203125 7.6484375 C-3.44255824 7.42922152 -3.44255824 7.42922152 -6.125 9.625 C-6.48916047 12.06193311 -6.48916047 12.06193311 -6.3125 14.75 C-6.28542969 15.66007812 -6.25835937 16.57015625 -6.23046875 17.5078125 C-6.19566406 18.20648437 -6.16085938 18.90515625 -6.125 19.625 C-2.61628216 21.53884609 -1.31132214 21.66776246 2.6875 20.75 C3.739375 20.37875 4.79125 20.0075 5.875 19.625 C5.875 22.265 5.875 24.905 5.875 27.625 C0.66808696 29.89468004 -3.69122351 30.00850767 -9.125 28.625 C-12.13350655 26.83269823 -13.6480916 25.41984733 -15.4375 22.4375 C-17.11773981 15.5637917 -16.58131203 9.79698578 -13.125 3.625 C-9.13705811 -0.23429861 -5.35682559 -0.59164939 0 0 Z " fill="#F7F7F7" transform="translate(74.125,10.375)"/>
<path d="M0 0 C-0.33 2.31 -0.66 4.62 -1 7 C-3.64 7.99 -6.28 8.98 -9 10 C-9.33 15.94 -9.66 21.88 -10 28 C-12.97 28 -15.94 28 -19 28 C-19 18.76 -19 9.52 -19 0 C-16.69 0 -14.38 0 -12 0 C-12 0.99 -12 1.98 -12 3 C-10.948125 2.319375 -9.89625 1.63875 -8.8125 0.9375 C-5.52523812 -0.96670658 -3.69056296 -1.3420229 0 0 Z " fill="#F7F7F7" transform="translate(137,11)"/>
<path d="M0 0 C0 2.64 0 5.28 0 8 C-1.98 8.99 -3.96 9.98 -6 11 C-6.33 16.94 -6.66 22.88 -7 29 C-9.97 29 -12.94 29 -16 29 C-16 19.76 -16 10.52 -16 1 C-13.69 1 -11.38 1 -9 1 C-9 1.99 -9 2.98 -9 4 C-7.88625 3.34 -6.7725 2.68 -5.625 2 C-2.25 0 -2.25 0 0 0 Z " fill="#F7F7F7" transform="translate(301,10)"/>
<path d="M0 0 C0.99 0 1.98 0 3 0 C4.32 3.3 5.64 6.6 7 10 C7 8.35 7 6.7 7 5 C9 3 9 3 12.625 2.875 C14.295625 2.936875 14.295625 2.936875 16 3 C15.34 5.31 14.68 7.62 14 10 C14.66 10.66 15.32 11.32 16 12 C15.625 14.625 15.625 14.625 15 17 C9.25 18.125 9.25 18.125 7 17 C7 15.68 7 14.36 7 13 C6.01 12.67 5.02 12.34 4 12 C3.67 11.34 3.34 10.68 3 10 C0.97536745 9.34786708 0.97536745 9.34786708 -1 9 C-1.33 10.32 -1.66 11.64 -2 13 C-2.99 12.67 -3.98 12.34 -5 12 C-3.35 8.04 -1.7 4.08 0 0 Z M1 4 C0.67 4.99 0.34 5.98 0 7 C0.66 7 1.32 7 2 7 C1.67 6.01 1.34 5.02 1 4 Z M10 5 C10 5.99 10 6.98 10 8 C10.99 7.67 11.98 7.34 13 7 C12.67 6.34 12.34 5.68 12 5 C11.34 5 10.68 5 10 5 Z M10 13 C9.67 13.66 9.34 14.32 9 15 C10.65 15 12.3 15 14 15 C14 14.34 14 13.68 14 13 C12.68 13 11.36 13 10 13 Z " fill="#F8F8F8" transform="translate(142,51)"/>
<path d="M0 0 C1.134375 0.020625 2.26875 0.04125 3.4375 0.0625 C3.4375 1.0525 3.4375 2.0425 3.4375 3.0625 C1.7875 2.7325 0.1375 2.4025 -1.5625 2.0625 C-1.5625 3.0525 -1.5625 4.0425 -1.5625 5.0625 C0.4175 5.7225 2.3975 6.3825 4.4375 7.0625 C5.0975 5.7425 5.7575 4.4225 6.4375 3.0625 C8.43704746 3.01995644 10.43791636 3.02169217 12.4375 3.0625 C13.4375 4.0625 13.4375 4.0625 13.5 6.625 C13.479375 7.429375 13.45875 8.23375 13.4375 9.0625 C11.7875 9.3925 10.1375 9.7225 8.4375 10.0625 C10.0875 10.3925 11.7375 10.7225 13.4375 11.0625 C13.4375 11.7225 13.4375 12.3825 13.4375 13.0625 C11.1875 13.75 11.1875 13.75 8.4375 14.0625 C6.125 12.625 6.125 12.625 4.4375 11.0625 C4.1075 11.7225 3.7775 12.3825 3.4375 13.0625 C-2.01177536 14.33786232 -2.01177536 14.33786232 -4.5625 13.0625 C-4.5625 12.4025 -4.5625 11.7425 -4.5625 11.0625 C-2.5825 11.0625 -0.6025 11.0625 1.4375 11.0625 C-0.49504772 9.0379262 -2.19408688 7.64144208 -4.5625 6.0625 C-4.8125 3.5 -4.8125 3.5 -4.5625 1.0625 C-3.5625 0.0625 -3.5625 0.0625 0 0 Z M8.4375 5.0625 C8.1075 5.7225 7.7775 6.3825 7.4375 7.0625 C8.7575 6.7325 10.0775 6.4025 11.4375 6.0625 C10.4475 5.7325 9.4575 5.4025 8.4375 5.0625 Z " fill="#F8F8F8" transform="translate(196.5625,50.9375)"/>
<path d="M0 0 C4.62 0 9.24 0 14 0 C15.60725635 3.21451269 15.05748185 6.43612536 15 10 C14.01 10 13.02 10 12 10 C12 7.36 12 4.72 12 2 C11.01 2.495 11.01 2.495 10 3 C9.59270772 5.32156597 9.25561323 7.6568787 9 10 C8.01 10 7.02 10 6 10 C6 7.36 6 4.72 6 2 C5.01 2.495 5.01 2.495 4 3 C3.59270772 5.32156597 3.25561323 7.6568787 3 10 C2.01 10 1.02 10 0 10 C0 6.7 0 3.4 0 0 Z " fill="#F7F7F7" transform="translate(73,54)"/>
<path d="M0 0 C2.05078125 0.03255208 4.1015625 0.06510417 6.15234375 0.09765625 C5.49234375 2.40765625 4.83234375 4.71765625 4.15234375 7.09765625 C4.81234375 7.75765625 5.47234375 8.41765625 6.15234375 9.09765625 C5.77734375 11.72265625 5.77734375 11.72265625 5.15234375 14.09765625 C2.33984375 14.72265625 2.33984375 14.72265625 -0.84765625 15.09765625 C-1.83765625 14.43765625 -2.82765625 13.77765625 -3.84765625 13.09765625 C-3.68265625 12.04578125 -3.51765625 10.99390625 -3.34765625 9.91015625 C-2.78534827 6.26341578 -2.78534827 6.26341578 -2.84765625 3.22265625 C-2.84765625 0.51891631 -2.70324878 0.14287784 0 0 Z M0.15234375 2.09765625 C0.15234375 3.08765625 0.15234375 4.07765625 0.15234375 5.09765625 C0.81234375 5.09765625 1.47234375 5.09765625 2.15234375 5.09765625 C2.15234375 4.10765625 2.15234375 3.11765625 2.15234375 2.09765625 C1.49234375 2.09765625 0.83234375 2.09765625 0.15234375 2.09765625 Z M-0.84765625 10.09765625 C-0.84765625 10.75765625 -0.84765625 11.41765625 -0.84765625 12.09765625 C0.47234375 12.09765625 1.79234375 12.09765625 3.15234375 12.09765625 C3.15234375 11.43765625 3.15234375 10.77765625 3.15234375 10.09765625 C1.83234375 10.09765625 0.51234375 10.09765625 -0.84765625 10.09765625 Z " fill="#F7F7F7" transform="translate(254.84765625,53.90234375)"/>
<path d="M0 0 C0.66 0 1.32 0 2 0 C2 4.62 2 9.24 2 14 C0.02 14.33 -1.96 14.66 -4 15 C-5.5625 13.375 -5.5625 13.375 -7 11 C-6.57446809 5.57446809 -6.57446809 5.57446809 -5 4 C-3.33382885 3.95936168 -1.66611905 3.957279 0 4 C0 2.68 0 1.36 0 0 Z M-3 6 C-4.29633621 7.06645115 -4.29633621 7.06645115 -4.0625 9.5625 C-4.041875 10.366875 -4.02125 11.17125 -4 12 C-2.68 11.67 -1.36 11.34 0 11 C-0.33 9.35 -0.66 7.7 -1 6 C-1.66 6 -2.32 6 -3 6 Z " fill="#F7F7F7" transform="translate(130,50)"/>
<path d="M0 0 C3.3 0 6.6 0 10 0 C10 3.3 10 6.6 10 10 C9.01 10 8.02 10 7 10 C7 7.36 7 4.72 7 2 C6.01 2.33 5.02 2.66 4 3 C3.67 5.31 3.34 7.62 3 10 C2.01 10 1.02 10 0 10 C0 6.7 0 3.4 0 0 Z " fill="#F7F7F7" transform="translate(230,54)"/>
<path d="M0 0 C0.99 0 1.98 0 3 0 C3.66 1.65 4.32 3.3 5 5 C5.66 3.35 6.32 1.7 7 0 C7.99 0.33 8.98 0.66 10 1 C9.26950918 3.15255287 8.5149728 5.29695864 7.75 7.4375 C7.33234375 8.63246094 6.9146875 9.82742187 6.484375 11.05859375 C5 14 5 14 2.828125 14.91015625 C2.22484375 14.93980469 1.6215625 14.96945313 1 15 C0.67 14.01 0.34 13.02 0 12 C0.99 12 1.98 12 3 12 C2.01 8.04 1.02 4.08 0 0 Z " fill="#F8F8F8" transform="translate(265,54)"/>
<path d="M0 0 C2.5 0.25 2.5 0.25 4.5 2.25 C4.5 3.57 4.5 4.89 4.5 6.25 C2.52 6.25 0.54 6.25 -1.5 6.25 C-1.5 6.91 -1.5 7.57 -1.5 8.25 C0.15 8.25 1.8 8.25 3.5 8.25 C3.5 8.91 3.5 9.57 3.5 10.25 C0.48968256 11.18423645 -0.36650268 11.29449911 -3.5 10.25 C-4.88125018 7.48749964 -4.69079306 5.30268901 -4.5 2.25 C-2.5 0.25 -2.5 0.25 0 0 Z M-0.5 2.25 C-0.83 2.91 -1.16 3.57 -1.5 4.25 C-0.51 3.92 0.48 3.59 1.5 3.25 C0.84 2.92 0.18 2.59 -0.5 2.25 Z " fill="#F7F7F7" transform="translate(93.5,53.75)"/>
<path d="M0 0 C1.99954746 -0.04254356 4.00041636 -0.04080783 6 0 C7 1 7 1 7.09765625 3.06640625 C7.08605469 3.89011719 7.07445313 4.71382812 7.0625 5.5625 C7.05347656 6.38878906 7.04445313 7.21507812 7.03515625 8.06640625 C7.02355469 8.70449219 7.01195313 9.34257813 7 10 C1.25 11.125 1.25 11.125 -1 10 C-1 8.35 -1 6.7 -1 5 C0.65 4.34 2.3 3.68 4 3 C2.68 3 1.36 3 0 3 C0 2.01 0 1.02 0 0 Z M2 6 C2 6.66 2 7.32 2 8 C2.99 7.67 3.98 7.34 5 7 C4.01 6.67 3.02 6.34 2 6 Z " fill="#F8F8F8" transform="translate(104,54)"/>
<path d="M0 0 C2 2 2 2 2.3125 4.9375 C2 8 2 8 0.8125 9.9375 C-1 11 -1 11 -3.625 10.75 C-6 10 -6 10 -7 9 C-7.14115161 6.32941149 -7.04247107 3.67567762 -7 1 C-4.48718205 -0.25640898 -2.78302919 -0.20872719 0 0 Z M-4 2 C-4.33 3.65 -4.66 5.3 -5 7 C-3.68 7.33 -2.36 7.66 -1 8 C-0.67 7.01 -0.34 6.02 0 5 C-0.66 4.01 -1.32 3.02 -2 2 C-2.66 2 -3.32 2 -4 2 Z " fill="#F8F8F8" transform="translate(282,54)"/>
<path d="M0 0 C1.99954746 -0.04254356 4.00041636 -0.04080783 6 0 C7 1 7 1 7.09765625 3.06640625 C7.08605469 3.89011719 7.07445312 4.71382812 7.0625 5.5625 C7.05347656 6.38878906 7.04445312 7.21507812 7.03515625 8.06640625 C7.02355469 8.70449219 7.01195312 9.34257813 7 10 C1.25 11.125 1.25 11.125 -1 10 C-1 8.35 -1 6.7 -1 5 C0.65 4.34 2.3 3.68 4 3 C2.68 3 1.36 3 0 3 C0 2.01 0 1.02 0 0 Z M2 6 C1.67 6.66 1.34 7.32 1 8 C2.32 7.67 3.64 7.34 5 7 C4.01 6.67 3.02 6.34 2 6 Z " fill="#F8F8F8" transform="translate(160,54)"/>
<path d="M0 0 C0.66 0 1.32 0 2 0 C2 2.64 2 5.28 2 8 C3.32 8 4.64 8 6 8 C6 5.36 6 2.72 6 0 C6.99 0 7.98 0 9 0 C9 3.3 9 6.6 9 10 C2.25 11.125 2.25 11.125 0 10 C0 6.7 0 3.4 0 0 Z " fill="#F9F9F9" transform="translate(220,54)"/>
<path d="M0 0 C6.15234375 -0.09765625 6.15234375 -0.09765625 8 0 C9 1 9 1 9.09765625 3.06640625 C9.08605469 3.89011719 9.07445312 4.71382812 9.0625 5.5625 C9.05347656 6.38878906 9.04445312 7.21507812 9.03515625 8.06640625 C9.02355469 8.70449219 9.01195312 9.34257813 9 10 C8.34 10 7.68 10 7 10 C6.67 7.36 6.34 4.72 6 2 C5.01 2.495 5.01 2.495 4 3 C3.59270772 5.32156597 3.25561323 7.6568787 3 10 C2.01 10 1.02 10 0 10 C0 6.7 0 3.4 0 0 Z " fill="#F7F7F7" transform="translate(173,54)"/>
<path d="M0 0 C0.99 0 1.98 0 3 0 C3 2.64 3 5.28 3 8 C3.99 7.67 4.98 7.34 6 7 C6.33 4.69 6.66 2.38 7 0 C7.66 0 8.32 0 9 0 C9 3.3 9 6.6 9 10 C3.62686567 11.31343284 3.62686567 11.31343284 1.125 10.0625 C-0.67836628 6.75632849 -0.18323695 3.72581793 0 0 Z " fill="#F7F7F7" transform="translate(285,54)"/>
<path d="M0 0 C6.15234375 -0.09765625 6.15234375 -0.09765625 8 0 C9 1 9 1 9.09765625 3.06640625 C9.08605469 3.89011719 9.07445313 4.71382812 9.0625 5.5625 C9.05347656 6.38878906 9.04445313 7.21507812 9.03515625 8.06640625 C9.02355469 8.70449219 9.01195313 9.34257813 9 10 C8.34 10 7.68 10 7 10 C6.67 7.69 6.34 5.38 6 3 C5.34 3 4.68 3 4 3 C3.67 5.31 3.34 7.62 3 10 C2.01 10 1.02 10 0 10 C0 6.7 0 3.4 0 0 Z " fill="#F7F7F7" transform="translate(113,54)"/>
<path d="M0 0 C3.375 -0.125 3.375 -0.125 7 0 C9 2 9 2 9.1953125 3.9453125 C9.13020833 5.96354167 9.06510417 7.98177083 9 10 C8.01 10 7.02 10 6 10 C6 7.36 6 4.72 6 2 C5.01 2 4.02 2 3 2 C2.67 4.64 2.34 7.28 2 10 C1.34 10 0.68 10 0 10 C0 6.7 0 3.4 0 0 Z " fill="#F8F8F8" transform="translate(242,54)"/>
<path d="M0 0 C3.3 0 6.6 0 10 0 C10 0.66 10 1.32 10 2 C9.01 2 8.02 2 7 2 C7 5.63 7 9.26 7 13 C6.01 13 5.02 13 4 13 C4 9.37 4 5.74 4 2 C2.68 2 1.36 2 0 2 C0 1.34 0 0.68 0 0 Z " fill="#F7F7F7" transform="translate(58,51)"/>
<path d="M0 0 C0.94875 0.04125 1.8975 0.0825 2.875 0.125 C2.545 1.115 2.215 2.105 1.875 3.125 C0.885 3.125 -0.105 3.125 -1.125 3.125 C-1.455 4.775 -1.785 6.425 -2.125 8.125 C-0.475 8.125 1.175 8.125 2.875 8.125 C2.875 8.785 2.875 9.445 2.875 10.125 C-0.13531744 11.05923645 -0.99150268 11.16949911 -4.125 10.125 C-5.50625018 7.36249964 -5.31579306 5.17768901 -5.125 2.125 C-3.125 0.125 -3.125 0.125 0 0 Z " fill="#F8F8F8" transform="translate(216.125,53.875)"/>
<path d="M0 0 C0.66 0 1.32 0 2 0 C2 3.3 2 6.6 2 10 C1.34 10 0.68 10 0 10 C0 6.7 0 3.4 0 0 Z " fill="#F8F8F8" transform="translate(169,54)"/>
<path d="M0 0 C0.66 0 1.32 0 2 0 C2 3.3 2 6.6 2 10 C1.34 10 0.68 10 0 10 C0 6.7 0 3.4 0 0 Z " fill="#F8F8F8" transform="translate(69,54)"/>
<path d="M0 0 C0.66 0 1.32 0 2 0 C1.67 1.98 1.34 3.96 1 6 C0.34 6 -0.32 6 -1 6 C-0.67 4.02 -0.34 2.04 0 0 Z " fill="#F8F8F8" transform="translate(184,61)"/>
<path d="M0 0 C0.99 0 1.98 0 3 0 C3 0.66 3 1.32 3 2 C2.01 2 1.02 2 0 2 C0 1.34 0 0.68 0 0 Z " fill="#F8F8F8" transform="translate(237,51)"/>
<path d="M0 0 C0.99 0 1.98 0 3 0 C3 0.66 3 1.32 3 2 C2.01 2 1.02 2 0 2 C0 1.34 0 0.68 0 0 Z " fill="#F7F7F7" transform="translate(69,51)"/>
<path d="M0 0 C0.66 0 1.32 0 2 0 C2 0.66 2 1.32 2 2 C1.34 2 0.68 2 0 2 C0 1.34 0 0.68 0 0 Z " fill="#F8F8F8" transform="translate(169,51)"/>
</svg>
